<svg width="64" height="64" viewBox="0 0 64 64" fill="none" xmlns="http://www.w3.org/2000/svg">
<g clip-path="url(#clip0_71_2118)">
<path d="M60.8 10.6667C62.5636 10.658 63.9913 9.23046 64 7.46674C64 5.69945 62.5673 4.26674 60.8 4.26674H59.7334V3.20011C59.7397 2.35563 59.4033 1.54474 58.8011 0.952631C58.2068 0.339004 57.3876 -0.00502627 56.5334 0.000117907C54.7661 0.000117907 53.3334 1.43282 53.3334 3.20011V4.26674H49.0668V3.20011C49.0731 2.35563 48.7367 1.54474 48.1345 0.952631C47.5402 0.339004 46.721 -0.00502627 45.8668 0.000117907C44.0995 0.000117907 42.6668 1.43282 42.6668 3.20011V4.26674H38.4001V3.20011C38.4064 2.35563 38.0701 1.54474 37.4679 0.952631C36.8736 0.339004 36.0544 -0.00502627 35.2002 0.000117907C33.4329 0.000117907 32.0002 1.43282 32.0002 3.20011V4.26674H28.4704C28.4704 1.91029 26.5601 0.000117907 24.2038 0.000117907H5.33336C2.38931 0.00358235 0.00356943 2.38933 0 5.33337V58.6666C0.00356943 61.6107 2.38931 63.9964 5.33336 64H58.6666C61.6107 63.9964 63.9964 61.6107 64 58.6666V39.7974C64 37.4409 62.0897 35.5308 59.7334 35.5308V32.0001H60.8C62.5636 31.9914 63.9913 30.5638 64 28.8001C64 27.0328 62.5673 25.6001 60.8 25.6001H59.7334V21.3335H60.8C62.5636 21.3247 63.9913 19.8972 64 18.1335C64 16.3662 62.5673 14.9335 60.8 14.9335H59.7334V10.6668H60.8V10.6667ZM60.8 6.40011C61.3891 6.40011 61.8666 6.87768 61.8666 7.46674C61.8674 7.75439 61.7493 8.02966 61.5402 8.22724C61.345 8.42502 61.0779 8.53547 60.8 8.53337H59.7334V6.40011H60.8ZM55.4666 3.20011C55.4666 2.61105 55.9442 2.13348 56.5333 2.13348C56.8206 2.13306 57.0954 2.25117 57.2927 2.45988C57.4918 2.65441 57.6027 2.9218 57.5999 3.20011V35.9638C57.2276 36.0833 56.8767 36.2059 56.5333 36.3276C56.1898 36.4492 55.8325 36.574 55.4666 36.6891V3.20011ZM46.9333 10.6667V14.9334H44.7999V10.6667H46.9333ZM53.3333 10.6667V14.9334H49.0667V10.6667H53.3333ZM38.3999 29.8667V27.7333H53.3333V29.8667H38.3999ZM53.3333 17.0667V19.2001H38.3999V17.0667H53.3333ZM44.7999 25.6001V21.3335H46.9333V25.6001H44.7999ZM38.3999 25.6001V21.3335H42.6666V25.6001H38.3999ZM49.0667 21.3333H53.3333V25.6H49.0667V21.3333ZM42.6667 14.9334H38.4V10.6667H42.6667V14.9334ZM38.3999 32.0001H42.6666V35.5808C41.3789 35.3102 40.0654 35.1825 38.7497 35.2001C38.6292 35.2001 38.5172 35.2139 38.3998 35.2182V32.0001H38.3999ZM44.7999 32.0001H46.9333V36.894C46.2933 36.7276 45.7259 36.5302 45.1509 36.3276L44.7999 36.205V32.0001ZM49.0667 32.0001H53.3333V37.1723C52.5076 37.285 51.6749 37.3388 50.8415 37.3333C50.1749 37.3333 49.5935 37.3046 49.0666 37.2565V32.0001H49.0667ZM44.7999 3.20011C44.7999 2.61105 45.2775 2.13348 45.8666 2.13348C46.1539 2.13306 46.4286 2.25117 46.626 2.45988C46.8251 2.65441 46.936 2.9218 46.9332 3.20011V4.26674H44.7998V3.20011H44.7999ZM53.3333 6.40011V8.53347H38.3999V6.40011H53.3333ZM34.1333 3.20011C34.1333 2.61105 34.6109 2.13348 35.1999 2.13348C35.4873 2.13306 35.762 2.25117 35.9594 2.45988C36.1584 2.65441 36.2694 2.9218 36.2666 3.20011V35.5254C35.5343 35.7144 34.8204 35.9681 34.1332 36.2838V3.20011H34.1333ZM28.4213 21.3333H31.9999V25.6H28.7818C28.7818 25.4795 28.8 25.3643 28.8 25.2416C28.8174 23.929 28.6905 22.6183 28.4213 21.3333ZM31.9999 14.9334H26.7445C26.6955 14.4054 26.6666 13.8209 26.6666 13.1499C26.6614 12.3195 26.7149 11.4896 26.8266 10.6667H31.9999V14.9334ZM31.9999 17.0667V19.2001H27.7983C27.7557 19.0806 27.714 18.959 27.6724 18.8406C27.4709 18.2689 27.2735 17.7057 27.1081 17.0667H31.9999ZM28.4736 27.7333H31.9999V29.8667H27.7131C28.029 29.1794 28.2834 28.4655 28.4736 27.7333ZM26.6091 32.0001H31.9999V37.3878C29.585 38.7136 28.48 39.1521 26.6666 37.3334C24.8532 35.5148 25.2853 34.4117 26.6091 32.0001ZM31.9999 8.53337H27.3067C27.4218 8.16645 27.5456 7.81654 27.6704 7.46674C27.7953 7.11683 27.9137 6.77448 28.032 6.40011H31.9999V8.53337ZM61.8666 39.7974V58.6666C61.8666 60.4339 60.4339 61.8666 58.6666 61.8666H5.33336C3.56607 61.8666 2.13336 60.4339 2.13336 58.6666V5.33337C2.13336 3.56608 3.56607 2.13338 5.33336 2.13338H24.2026C24.8567 2.13411 25.4744 2.43415 25.8794 2.94763C26.2844 3.46121 26.4322 4.13184 26.2806 4.76804C26.1097 5.44004 25.9028 6.10227 25.6608 6.75201C24.8677 8.79037 24.4845 10.9653 24.5334 13.152C24.4844 15.3387 24.8676 17.5136 25.6608 19.552C26.3715 21.3626 26.7134 23.2971 26.6667 25.2416C26.5616 27.2284 25.9267 29.1509 24.8278 30.8096C23.5478 33.1349 22.0896 35.7717 25.1575 38.8415C28.2252 41.9113 30.8598 40.4565 33.1852 39.1722C34.8428 38.0735 36.7642 37.4385 38.75 37.3333C40.6952 37.2866 42.6302 37.6286 44.4417 38.3392C46.48 39.1327 48.6549 39.5159 50.8417 39.4666C53.0286 39.5159 55.2036 39.1323 57.2417 38.338C57.8932 38.096 58.5574 37.8892 59.231 37.7183C59.8674 37.567 60.5382 37.7151 61.0518 38.1203C61.5653 38.5254 61.8655 39.1432 61.8666 39.7974ZM60.8 27.7333C61.3891 27.7333 61.8666 28.2109 61.8666 28.8C61.8674 29.0876 61.7493 29.3629 61.5402 29.5605C61.345 29.7583 61.0779 29.8687 60.8 29.8666H59.7334V27.7332H60.8V27.7333ZM60.8 17.0667C61.3891 17.0667 61.8666 17.5443 61.8666 18.1334C61.8674 18.421 61.7493 18.6963 61.5402 18.8939C61.345 19.0916 61.0779 19.2021 60.8 19.2H59.7334V17.0666H60.8V17.0667Z" fill="black"/>
<path d="M8.53325 52.2667C6.76596 52.2667 5.33325 53.6994 5.33325 55.4667C5.33325 57.2339 6.76596 58.6666 8.53325 58.6666C10.3005 58.6666 11.7332 57.2339 11.7332 55.4667C11.7332 53.6994 10.3005 52.2667 8.53325 52.2667ZM8.53325 56.5333C7.94419 56.5333 7.46662 56.0557 7.46662 55.4667C7.46662 54.8776 7.94419 54.4 8.53325 54.4C9.12231 54.4 9.59988 54.8776 9.59988 55.4667C9.59988 56.0558 9.12231 56.5333 8.53325 56.5333Z" fill="black"/>
<path d="M19.2 5.33337C17.4327 5.33337 16 6.76608 16 8.53337C16 10.3007 17.4327 11.7334 19.2 11.7334C20.9673 11.7334 22.4 10.3007 22.4 8.53337C22.4 6.76608 20.9674 5.33337 19.2 5.33337ZM19.2 9.6001C18.6109 9.6001 18.1334 9.12253 18.1334 8.53347C18.1334 7.94441 18.6109 7.46684 19.2 7.46684C19.7891 7.46684 20.2666 7.94441 20.2666 8.53347C20.2667 9.12253 19.7892 9.6001 19.2 9.6001Z" fill="black"/>
<path d="M9.60008 50.1333C10.1892 50.1333 10.6667 49.6557 10.6667 49.0666C10.6667 48.4775 10.1892 48 9.60008 48C9.01099 48 8.53345 48.4775 8.53345 49.0666C8.53345 49.6557 9.01099 50.1333 9.60008 50.1333Z" fill="black"/>
<path d="M17.0669 16C17.656 16 18.1335 15.5224 18.1335 14.9333C18.1335 14.3442 17.656 13.8667 17.0669 13.8667C16.4778 13.8667 16.0002 14.3442 16.0002 14.9333C16.0002 15.5224 16.4778 16 17.0669 16Z" fill="black"/>
<path d="M57.6001 43.7333C58.1892 43.7333 58.6667 43.2558 58.6667 42.6667C58.6667 42.0776 58.1892 41.6 57.6001 41.6C57.011 41.6 56.5334 42.0776 56.5334 42.6667C56.5334 43.2558 57.011 43.7333 57.6001 43.7333Z" fill="black"/>
<path fill-rule="evenodd" clip-rule="evenodd" d="M51.6108 52.4917C51.2694 52.7563 51.1213 53.2005 51.2356 53.6171C51.3499 54.0336 51.704 54.3401 52.1327 54.3934C52.5613 54.4466 52.9797 54.2362 53.1925 53.8604C53.4053 53.4845 53.3704 53.0175 53.1042 52.6774C52.7423 52.215 52.0748 52.132 51.6108 52.4917Z" fill="black"/>
<path fill-rule="evenodd" clip-rule="evenodd" d="M49.4775 41.8251C49.1361 42.0896 48.988 42.5339 49.1023 42.9505C49.2166 43.367 49.5707 43.6735 49.9994 43.7267C50.428 43.78 50.8464 43.5696 51.0592 43.1937C51.272 42.8179 51.2371 42.3508 50.9709 42.0108C50.6089 41.5483 49.9415 41.4654 49.4775 41.8251Z" fill="black"/>
</g>
<defs>
<clipPath id="clip0_71_2118">
<rect width="64" height="64" fill="white"/>
</clipPath>
</defs>
</svg>
